<?xml version="1.0" encoding="iso-8859-1"?>
<svg height="800px" width="800px" version="1.1" id="Layer_1" xmlns="http://www.w3.org/2000/svg" xmlns:xlink="http://www.w3.org/1999/xlink" 
	 viewBox="0 0 490.984 490.984" xml:space="preserve">
<path style="fill:white; stroke:black; stroke-width:5px;" d="M477.861,280.285h-83.243c-25.907-56.517-82.881-95.839-149.126-95.839
	s-123.219,39.322-149.126,95.839H13.123C5.876,280.285,0,286.161,0,293.415c0,7.247,5.876,13.123,13.123,13.123h464.738
	c7.247,0,13.123-5.876,13.123-13.123C490.984,286.161,485.108,280.285,477.861,280.285z"/>
<path style="fill:white; stroke:black; stroke-width:5px;" d="M490.984,293.415c0-7.255-5.876-13.131-13.123-13.131h-83.243
	c-25.907-56.517-82.881-95.839-149.126-95.839c-23.828,0-46.434,5.159-66.859,14.304l107.78,107.788h191.449
	C485.108,306.538,490.984,300.662,490.984,293.415z"/>
</svg>