<?xml version='1.0' encoding='iso-8859-1'?>
<!-- Uploaded to: SVG Repo, www.svgrepo.com, Generator: SVG Repo Mixer Tools -->
<svg fill="#000000" height="800px" width="800px" version="1.1" xmlns="http://www.w3.org/2000/svg" viewBox="0 0 470 470" xmlns:xlink="http://www.w3.org/1999/xlink" enable-background="new 0 0 470 470">
  <g>
    <path d="m326.085,203.622c-20.678,0-37.5,16.822-37.5,37.5s16.822,37.5 37.5,37.5 37.5-16.822 37.5-37.5-16.822-37.5-37.5-37.5zm0,60c-12.407,0-22.5-10.094-22.5-22.5s10.093-22.5 22.5-22.5 22.5,10.094 22.5,22.5-10.093,22.5-22.5,22.5z"/>
    <path d="m143.915,278.622c20.678,0 37.5-16.822 37.5-37.5s-16.822-37.5-37.5-37.5-37.5,16.822-37.5,37.5 16.822,37.5 37.5,37.5zm0-60c12.407,0 22.5,10.094 22.5,22.5s-10.093,22.5-22.5,22.5-22.5-10.094-22.5-22.5 10.093-22.5 22.5-22.5z"/>
    <path d="m290.368,321.868c0-30.53-24.838-55.368-55.368-55.368s-55.368,24.838-55.368,55.368v24.256c0,4.143 3.358,7.5 7.5,7.5h9.654v78.163c0,21.07 17.143,38.213 38.213,38.213s38.213-17.143 38.213-38.213v-55.663c0-4.143-3.358-7.5-7.5-7.5s-7.5,3.357-7.5,7.5v55.663c0.001,12.8-10.412,23.213-23.212,23.213s-23.213-10.413-23.213-23.213v-78.163h71.081c4.142,0 7.5-3.357 7.5-7.5v-24.256zm-15,16.756h-80.735v-16.756c0-22.259 18.109-40.368 40.368-40.368s40.368,18.109 40.368,40.368v16.756z"/>
    <path d="m354.118,65.57c-3.284-19.282-22.343-35.571-41.618-35.571h-155c-19.274,0-38.333,16.29-41.618,35.571-3.237,19.001-8.901,59.252-10.463,115.343-0.056,2.024 0.708,3.986 2.121,5.438 1.412,1.452 3.351,2.271 5.376,2.271h244.169c2.025,0 3.965-0.819 5.377-2.271s2.177-3.414 2.121-5.438c-1.564-56.096-7.228-96.345-10.465-115.343zm-44.118,108.052v-106.123c0-4.143-3.358-7.5-7.5-7.5s-7.5,3.357-7.5,7.5v106.123h-120v-106.123c0-4.143-3.358-7.5-7.5-7.5s-7.5,3.357-7.5,7.5v106.123h-39.345c1.813-51.14 6.992-87.801 10.013-105.532 2.059-12.085 14.848-23.091 26.831-23.091h155c11.984,0 24.773,11.005 26.831,23.09 3.021,17.73 8.201,54.392 10.013,105.533h-39.343z"/>
    <path d="m424.666,74.859c-4.086-0.687-7.954,2.064-8.643,6.148l-4.597,27.265c-0.767,4.549-5.486,8.538-10.098,8.538h-10.468c-1.826-20.062-4.23-39.038-7.168-56.279-5.686-33.377-37.623-60.531-71.192-60.531h-155c-33.569,0-65.506,27.154-71.192,60.531-2.937,17.241-5.342,36.217-7.168,56.279h-10.468c-4.612,0-9.331-3.989-10.098-8.538l-4.597-27.265c-0.688-4.083-4.555-6.837-8.643-6.148-4.084,0.688-6.837,4.558-6.148,8.643l4.597,27.265c1.99,11.8 12.922,21.044 24.889,21.044h9.226c-1.901,25.421-2.898,52.263-2.898,79.311 0,54.306 4.016,107.787 11.308,150.591 5.686,33.377 37.623,60.531 71.192,60.531h16.787c4.142,0 7.5-3.357 7.5-7.5s-3.358-7.5-7.5-7.5h-16.787c-26.588,0-51.892-21.556-56.405-48.051-4.144-24.322-11.095-75.902-11.095-148.071 0-33.257 1.478-62.129 3.475-85.99 0.006-0.058 0.01-0.117 0.015-0.176 2.335-27.83 5.376-48.819 7.605-61.906 4.513-26.494 29.817-48.05 56.405-48.05h155c26.588,0 51.891,21.556 56.405,48.051 2.229,13.087 5.27,34.076 7.605,61.906 0.005,0.059 0.008,0.118 0.015,0.176 1.997,23.86 3.475,52.732 3.475,85.99 0,72.169-6.951,123.749-11.095,148.071-4.514,26.495-29.817,48.051-56.405,48.051h-16.787c-4.142,0-7.5,3.357-7.5,7.5s3.358,7.5 7.5,7.5h16.787c33.569,0 65.506-27.154 71.192-60.531 7.292-42.805 11.308-96.286 11.308-150.592 0-27.048-0.997-53.89-2.898-79.312h9.226c11.967,0 22.899-9.244 24.889-21.044l4.597-27.265c0.689-4.084-2.064-7.953-6.148-8.642z"/>
  </g>
</svg>