<?xml version="1.0" ?>
<!-- Uploaded to: SVG Repo, www.svgrepo.com, Generator: SVG Repo Mixer Tools -->
<svg width="800px" height="800px" viewBox="0 0 24 24" version="1.1" xml:space="preserve" xmlns="http://www.w3.org/2000/svg" xmlns:xlink="http://www.w3.org/1999/xlink">
<style type="text/css">
	.st0{opacity:0.2;fill:none;stroke:#000000;stroke-width:5.000000e-02;stroke-miterlimit:10;}
</style>
<g id="grid_system"/>
<g id="_icons">
<path d="M13.6,7l-0.9-1.8C12,3.8,10.7,3,9.1,3H7C4.8,3,3,4.8,3,7v1v9c0,2.2,1.8,4,4,4h10c2.2,0,4-1.8,4-4v-6c0-2.2-1.8-4-4-4H13.6z    M7,5h2.1c0.8,0,1.4,0.4,1.8,1.1L11.4,7H5C5,5.9,5.9,5,7,5z M19,11v6c0,1.1-0.9,2-2,2H7c-1.1,0-2-0.9-2-2V9h8h4   C18.1,9,19,9.9,19,11z"/>
</g>
</svg>